<svg width="2560" height="640" viewBox="0 0 2560 640" fill="none" xmlns="http://www.w3.org/2000/svg" role="img" aria-labelledby="title desc">
  <title id="title">pss-mgba — autonomous mGBA harness</title>
  <desc id="desc">A clean dark README banner for pss-mgba: pss-next powered autonomous mGBA harness with RAM, vision, supervised controls, and trace-driven runs.</desc>
  <defs>
    <linearGradient id="bg" x1="0" y1="0" x2="2560" y2="640" gradientUnits="userSpaceOnUse">
      <stop stop-color="#08090A"/>
      <stop offset="0.54" stop-color="#0B0B0C"/>
      <stop offset="1" stop-color="#101314"/>
    </linearGradient>
    <radialGradient id="greenGlow" cx="0" cy="0" r="1" gradientUnits="userSpaceOnUse" gradientTransform="translate(1832 308) scale(520 270)">
      <stop stop-color="#A3E635" stop-opacity="0.16"/>
      <stop offset="1" stop-color="#A3E635" stop-opacity="0"/>
    </radialGradient>
    <radialGradient id="redGlow" cx="0" cy="0" r="1" gradientUnits="userSpaceOnUse" gradientTransform="translate(832 344) scale(600 240)">
      <stop stop-color="#EF4444" stop-opacity="0.12"/>
      <stop offset="1" stop-color="#EF4444" stop-opacity="0"/>
    </radialGradient>
    <filter id="textGlow" x="-10%" y="-35%" width="120%" height="170%" color-interpolation-filters="sRGB">
      <feGaussianBlur stdDeviation="6" result="blur"/>
      <feColorMatrix in="blur" type="matrix" values="1 0 0 0 0  0 1 0 0 0  0 0 1 0 0  0 0 0 .24 0" result="glow"/>
      <feMerge>
        <feMergeNode in="glow"/>
        <feMergeNode in="SourceGraphic"/>
      </feMerge>
    </filter>
  </defs>

  <rect width="2560" height="640" fill="url(#bg)"/>
  <rect width="2560" height="640" fill="url(#greenGlow)"/>
  <rect width="2560" height="640" fill="url(#redGlow)"/>
  <rect x="32" y="32" width="2496" height="576" stroke="#27272A" stroke-width="2"/>
  <rect x="40" y="40" width="2480" height="560" stroke="#151518" stroke-width="2"/>

  <!-- left copy -->
  <g font-family="ui-monospace, SFMono-Regular, Menlo, Monaco, Consolas, 'Liberation Mono', monospace">
    <text x="208" y="154" fill="#A1A1AA" font-size="30" font-weight="700" letter-spacing="0.18em">PSS-NEXT POWERED</text>
    <text x="204" y="318" fill="#F4F4F5" font-size="146" font-weight="800" letter-spacing="-0.085em" filter="url(#textGlow)">pss-mgba</text>
    <text x="210" y="402" fill="#E4E4E7" font-size="52" font-weight="700" letter-spacing="-0.025em">autonomous mGBA harness</text>
    <text x="212" y="494" fill="#71717A" font-size="27" font-weight="500" letter-spacing="0.055em">RAM + vision  ·  supervised controls  ·  trace-driven runs</text>
  </g>

  <path d="M208 188H934" stroke="#27272A" stroke-width="2"/>
  <path d="M212 444H1194" stroke="#27272A" stroke-width="2"/>

  <!-- right abstract Game Boy/mGBA screen -->
  <g transform="translate(1584 116)">
    <rect x="0" y="0" width="648" height="408" rx="28" fill="#111113" stroke="#3F3F46" stroke-width="2"/>
    <rect x="34" y="34" width="580" height="300" rx="12" fill="#0A120A" stroke="#365314" stroke-width="2"/>
    <rect x="56" y="56" width="536" height="256" fill="#9BBC0F" fill-opacity="0.15" stroke="#84CC16" stroke-opacity="0.22"/>

    <!-- 16x16-ish red movement grid motif -->
    <g opacity="0.56" stroke="#EF4444" stroke-width="1.4">
      <path d="M123 56V312"/><path d="M190 56V312"/><path d="M257 56V312"/><path d="M324 56V312"/><path d="M391 56V312"/><path d="M458 56V312"/><path d="M525 56V312"/>
      <path d="M56 88H592"/><path d="M56 120H592"/><path d="M56 152H592"/><path d="M56 184H592"/><path d="M56 216H592"/><path d="M56 248H592"/><path d="M56 280H592"/>
    </g>

    <!-- abstract player/agent marker, not a Pokemon character -->
    <g transform="translate(310 162)">
      <rect x="-24" y="-24" width="48" height="48" fill="#D9F99D" fill-opacity="0.88"/>
      <rect x="-10" y="-10" width="20" height="20" fill="#0A120A" fill-opacity="0.9"/>
      <path d="M0 -58V-34M0 34V58M-58 0H-34M34 0H58" stroke="#D9F99D" stroke-width="6" stroke-linecap="square"/>
    </g>

    <g font-family="ui-monospace, SFMono-Regular, Menlo, Monaco, Consolas, monospace">
      <text x="56" y="374" fill="#A1A1AA" font-size="20" letter-spacing="0.08em">mGBA / RAM / FRAME / ACTION</text>
      <circle cx="524" cy="366" r="18" fill="#18181B" stroke="#52525B" stroke-width="2"/>
      <circle cx="574" cy="366" r="18" fill="#18181B" stroke="#52525B" stroke-width="2"/>
    </g>
  </g>

  <g font-family="ui-monospace, SFMono-Regular, Menlo, Monaco, Consolas, monospace" text-anchor="middle">
    <rect x="1114" y="548" width="332" height="38" stroke="#27272A" fill="#0B0B0C" fill-opacity="0.55"/>
    <text x="1280" y="573" fill="#71717A" font-size="16" letter-spacing="0.12em">LEGAL ROMS ONLY</text>
  </g>
</svg>
